<?xml version="1.0" encoding="utf-8"?>
<!-- Generator: Adobe Illustrator 23.0.1, SVG Export Plug-In . SVG Version: 6.00 Build 0)  -->
<svg version="1.1" id="Layer_2_1_" xmlns="http://www.w3.org/2000/svg" xmlns:xlink="http://www.w3.org/1999/xlink" x="0px" y="0px"
	 viewBox="0 0 633 281" style="enable-background:new 0 0 633 281;" xml:space="preserve">
<style type="text/css">
	.st0{fill:#61DAFB;}
	.st1{fill:url(#path1948_1_);}
	.st2{fill:url(#path1950_1_);}
</style>
<g>
	<path class="st0" d="M295.3,140.1c0-16.3-20.4-31.7-51.5-41.2c7.2-31.8,4-57.1-10.1-65.2c-3.2-1.9-7-2.8-11.2-2.8V42
		c2.3,0,4.1,0.5,5.7,1.3c6.8,3.9,9.8,18.7,7.5,37.9c-0.5,4.7-1.5,9.7-2.5,14.7c-9.8-2.4-20.5-4.2-31.8-5.4
		c-6.8-9.2-13.8-17.7-20.8-25c16.3-15.2,31.6-23.5,42-23.5V30.8l0,0c-13.8,0-31.8,9.8-49.9,26.8c-18.2-16.9-36.2-26.6-50-26.6v11.2
		c10.4,0,25.7,8.2,42,23.3c-7,7.3-14,15.7-20.6,24.9c-11.3,1.2-22,3.1-31.8,5.5c-1.1-5-2-9.8-2.6-14.5c-2.4-19.1,0.6-34,7.3-37.9
		c1.5-0.9,3.4-1.3,5.8-1.3V31.1l0,0c-4.2,0-8,0.9-11.3,2.8c-14.1,8.1-17.2,33.4-9.9,65.1C70.2,108.5,50,123.9,50,140.1
		c0,16.2,20.3,31.6,51.5,41.2c-7.2,31.8-4,57.1,10.1,65.2c3.2,1.9,7.1,2.8,11.2,2.8c13.8,0,31.8-9.8,50-26.8
		c18.2,16.9,36.2,26.6,50,26.6c4.2,0,8-0.9,11.3-2.8c14-8.1,17.2-33.3,10-65.1C275,171.7,295.3,156.3,295.3,140.1z M230.2,106.7
		c-1.9,6.4-4.1,13.1-6.8,19.7c-2-4-4.2-8-6.6-12c-2.3-4-4.8-7.9-7.2-11.7C216.8,103.8,223.6,105.1,230.2,106.7z M207.3,160
		c-3.9,6.8-7.9,13.1-12.1,19.1c-7.4,0.6-15,1-22.6,1c-7.6,0-15.1-0.4-22.5-0.9c-4.1-5.9-8.2-12.3-12.1-19
		c-3.8-6.6-7.2-13.2-10.4-19.9c3.1-6.7,6.6-13.4,10.4-20c3.9-6.8,7.9-13.2,12.1-19.1c7.4-0.7,15-1,22.6-1c7.6,0,15.1,0.3,22.5,0.9
		c4.1,5.9,8.2,12.3,12.1,19c3.8,6.6,7.2,13.2,10.4,19.9C214.5,146.7,211,153.4,207.3,160z M223.4,153.5c2.7,6.7,5,13.4,6.9,19.9
		c-6.5,1.6-13.4,2.9-20.6,4c2.4-3.9,4.9-7.8,7.2-11.9C219.2,161.5,221.4,157.5,223.4,153.5z M172.7,206.8c-4.6-4.8-9.3-10.1-13.9-16
		c4.5,0.2,9.1,0.4,13.8,0.4c4.7,0,9.4-0.1,13.9-0.4C182,196.7,177.3,202,172.7,206.8z M135.5,177.4c-7.1-1.1-14-2.4-20.5-3.9
		c1.9-6.4,4.1-13.1,6.8-19.8c2.1,4,4.2,8,6.6,12C130.7,169.7,133.1,173.6,135.5,177.4z M172.5,73.3c4.6,4.8,9.3,10.2,13.9,16
		c-4.5-0.2-9.1-0.3-13.8-0.3c-4.7,0-9.4,0.1-13.9,0.3C163.2,83.5,167.9,78.1,172.5,73.3z M135.5,102.8c-2.4,3.8-4.9,7.8-7.2,11.8
		c-2.3,4-4.5,8-6.5,12c-2.7-6.7-5-13.4-6.9-19.9C121.4,105.2,128.3,103.8,135.5,102.8z M90.2,165.4c-17.7-7.6-29.2-17.4-29.2-25.3
		s11.4-17.8,29.2-25.3c4.3-1.8,9-3.5,13.9-5.1c2.9,9.8,6.6,20,11.2,30.5c-4.6,10.4-8.3,20.6-11.1,30.3
		C99.3,168.9,94.6,167.2,90.2,165.4z M117.1,236.8c-6.8-3.9-9.8-18.8-7.4-37.9c0.6-4.7,1.4-9.6,2.6-14.7c9.8,2.4,20.5,4.2,31.8,5.4
		c6.8,9.2,13.8,17.6,20.8,25c-16.3,15.1-31.6,23.4-42,23.4C120.5,238.1,118.6,237.7,117.1,236.8z M235.7,198.7
		c2.4,19.1-0.5,33.9-7.3,37.9c-1.5,0.9-3.5,1.3-5.8,1.3c-10.4,0-25.7-8.2-42-23.3c7-7.4,14-15.7,20.6-24.9c11.3-1.2,22-3.1,31.8-5.5
		C234.3,189.2,235.2,194.1,235.7,198.7z M255,165.4c-4.3,1.9-9,3.5-13.9,5.1c-2.9-9.8-6.6-20-11.2-30.4c4.6-10.4,8.3-20.6,11.1-30.3
		c5,1.6,9.6,3.2,14,5.1c17.7,7.5,29.1,17.5,29.1,25.3C284.1,147.9,272.7,157.9,255,165.4z"/>
	<path class="st0" d="M122.5,31L122.5,31L122.5,31z"/>
	<circle class="st0" cx="172.6" cy="140.1" r="22.9"/>
	<path class="st0" d="M222.4,30.9L222.4,30.9L222.4,30.9z"/>
</g>
<g>
	
		<linearGradient id="path1948_1_" gradientUnits="userSpaceOnUse" x1="641.2579" y1="72.6829" x2="844.8823" y2="-102.5085" gradientTransform="matrix(0.5625 0 0 -0.568 11.5983 82.327)">
		<stop  offset="0" style="stop-color:#5A9FD4"/>
		<stop  offset="1" style="stop-color:#306998"/>
	</linearGradient>
	<path id="path1948" class="st1" d="M480,35.1c-8.6,0-16.7,0.8-23.9,2c-21.2,3.7-25,11.6-25,26v19.1h50.1v6.4H431h-18.8
		c-14.6,0-27.3,8.7-31.3,25.4c-4.6,19.1-4.8,31,0,50.9c3.6,14.8,12.1,25.4,26.6,25.4h17.2v-22.9c0-16.5,14.3-31.1,31.3-31.1h50
		c13.9,0,25-11.5,25-25.4V63.1c0-13.6-11.4-23.8-25-26C497.5,35.7,488.6,35,480,35.1z M452.9,50.4c5.2,0,9.4,4.3,9.4,9.6
		c0,5.3-4.2,9.5-9.4,9.5c-5.2,0-9.4-4.3-9.4-9.5C443.5,54.7,447.7,50.4,452.9,50.4z"/>
	
		<linearGradient id="path1950_1_" gradientUnits="userSpaceOnUse" x1="923.6047" y1="-208.5416" x2="850.8906" y2="-105.6636" gradientTransform="matrix(0.5625 0 0 -0.568 11.5983 82.327)">
		<stop  offset="0" style="stop-color:#FFD43B"/>
		<stop  offset="1" style="stop-color:#FFE873"/>
	</linearGradient>
	<path id="path1950" class="st2" d="M537.4,88.6v22.2c0,17.2-14.6,31.8-31.3,31.8h-50c-13.7,0-25,11.7-25,25.4v47.7
		c0,13.6,11.8,21.6,25,25.4c15.9,4.7,31.1,5.5,50,0c12.6-3.7,25-11,25-25.4v-19.1h-50v-6.4h50h25c14.6,0,20-10.2,25-25.4
		c5.2-15.7,5-30.8,0-50.9c-3.6-14.5-10.5-25.4-25-25.4H537.4z M509.2,209.4c5.2,0,9.4,4.3,9.4,9.5c0,5.3-4.2,9.6-9.4,9.6
		c-5.2,0-9.4-4.3-9.4-9.6C499.9,213.6,504.1,209.4,509.2,209.4z"/>
</g>
</svg>
