<?xml version="1.0" standalone="no"?>
<!DOCTYPE svg PUBLIC "-//W3C//DTD SVG 20010904//EN"
 "http://www.w3.org/TR/2001/REC-SVG-20010904/DTD/svg10.dtd">
<svg version="1.0" xmlns="http://www.w3.org/2000/svg"
 width="782.000000pt" height="782.000000pt" viewBox="0 0 782.000000 782.000000"
 preserveAspectRatio="xMidYMid meet">
<metadata>
Created by potrace 1.11, written by Peter Selinger 2001-2013
</metadata>
<g transform="translate(0.000000,782.000000) scale(0.100000,-0.100000)"
fill="#000000" stroke="none">
<path d="M2980 6180 l0 -970 970 0 970 0 0 970 0 970 -970 0 -970 0 0 -970z"/>
<path d="M5220 6180 l0 -970 970 0 971 0 -3 838 -3 837 -29 59 c-37 76 -96
135 -172 172 l-59 29 -837 3 -838 3 0 -971z"/>
<path d="M740 3940 l0 -970 970 0 970 0 0 970 0 970 -970 0 -970 0 0 -970z"/>
<path d="M2980 3940 l0 -970 970 0 970 0 0 970 0 970 -970 0 -970 0 0 -970z"/>
<path d="M5220 3940 l0 -970 970 0 970 0 0 970 0 970 -970 0 -970 0 0 -970z"/>
<path d="M742 1853 l3 -818 24 -60 c33 -83 133 -183 216 -216 l60 -24 818 -3
817 -3 0 971 0 970 -970 0 -971 0 3 -817z"/>
<path d="M2980 1700 l0 -970 970 0 970 0 0 970 0 970 -970 0 -970 0 0 -970z"/>
</g>
</svg>
