<?xml version="1.0" encoding="utf-8"?>
<!-- Generator: Adobe Illustrator 23.0.1, SVG Export Plug-In . SVG Version: 6.00 Build 0)  -->
<svg version="1.1" id="Layer_1" xmlns="http://www.w3.org/2000/svg" xmlns:xlink="http://www.w3.org/1999/xlink" x="0px" y="0px"
	 viewBox="0 0 1982 405" style="enable-background:new 0 0 1982 405;" xml:space="preserve">
<style type="text/css">
	.st0{fill:#29ABE2;stroke:#FFFFFF;stroke-width:15;stroke-miterlimit:10;}
	.st1{enable-background:new    ;}
	.st2{fill:#E6E6E6;}
</style>
<g>
	<rect x="73.5" y="130.5" class="st0" width="112" height="112"/>
	<rect x="185.5" y="130.5" class="st0" width="112" height="112"/>
	<path class="st0" d="M185.5,354.5h-84.9c-15,0-27.1-12.1-27.1-27.1v-84.9h112V354.5z"/>
	<rect x="185.5" y="242.5" class="st0" width="112" height="112"/>
	<rect x="297.5" y="130.5" class="st0" width="112" height="112"/>
	<rect x="185.5" y="18.5" class="st0" width="112" height="112"/>
	<path class="st0" d="M409.5,130.5h-112v-112h86.8c13.9,0,25.2,11.3,25.2,25.2V130.5z"/>
</g>
<g class="st1">
	<path class="st2" d="M550.6,201.9V280h-29V87.7h32.9c16.1,0,28.3,1.1,36.5,3.4c8.3,2.2,15.6,6.5,21.9,12.7
		c11,10.8,16.6,24.4,16.6,40.8c0,17.6-5.9,31.5-17.7,41.8c-11.8,10.3-27.7,15.4-47.7,15.4H550.6z M550.6,175h10.8
		c26.6,0,40-10.3,40-30.8c0-19.8-13.7-29.8-41.2-29.8h-9.6V175z"/>
	<path class="st2" d="M649.7,108.3c0-4.9,1.8-9.1,5.4-12.7c3.6-3.6,7.8-5.4,12.8-5.4c5.1,0,9.4,1.8,13,5.4c3.6,3.5,5.4,7.8,5.4,12.8
		c0,5.1-1.8,9.4-5.4,13c-3.5,3.6-7.8,5.4-12.8,5.4c-5.1,0-9.4-1.8-13-5.4C651.5,117.8,649.7,113.4,649.7,108.3z M681.9,158.7V280
		h-28V158.7H681.9z"/>
	<path class="st2" d="M755,214.4l-43.6-55.7h33.4l27,35.4l27.5-35.4h34.4l-44.8,55.7l51.9,65.6h-33.4l-35.6-45.3L735.4,280h-34.2
		L755,214.4z"/>
	<path class="st2" d="M1007.2,98.1v34.4c-16.8-14-34.1-21-52.1-21c-19.8,0-36.4,7.1-49.9,21.3c-13.6,14.1-20.4,31.4-20.4,51.8
		c0,20.2,6.8,37.2,20.4,51.1c13.6,13.9,30.3,20.8,50.1,20.8c10.2,0,18.9-1.7,26-5c4-1.7,8.1-3.9,12.4-6.7c4.3-2.8,8.8-6.2,13.5-10.2
		v35c-16.6,9.4-34,14.1-52.3,14.1c-27.5,0-50.9-9.6-70.4-28.8c-19.3-19.3-29-42.7-29-70c0-24.5,8.1-46.3,24.3-65.5
		C899.7,95.7,925.5,84,957.1,84C974.4,84,991.1,88.7,1007.2,98.1z"/>
	<path class="st2" d="M1127.9,158.7h28.1V280h-28.1v-12.7c-11.5,10.8-24,16.2-37.2,16.2c-16.8,0-30.6-6.1-41.6-18.2
		c-10.9-12.4-16.3-27.8-16.3-46.3c0-18.2,5.4-33.3,16.3-45.5c10.9-12.1,24.5-18.2,40.8-18.2c14.1,0,26.8,5.8,38,17.4V158.7z
		 M1061.4,219c0,11.6,3.1,21.1,9.3,28.4c6.4,7.4,14.4,11.1,24.2,11.1c10.4,0,18.8-3.6,25.2-10.7c6.4-7.4,9.6-16.8,9.6-28.1
		c0-11.4-3.2-20.8-9.6-28.1c-6.4-7.2-14.7-10.8-24.9-10.8c-9.6,0-17.7,3.7-24.2,11C1064.6,199,1061.4,208.1,1061.4,219z"/>
	<path class="st2" d="M1220.3,184.9V280h-28v-95.1h-12v-26.2h12v-44.5h28v44.5h21.8v26.2H1220.3z"/>
	<path class="st2" d="M1352.8,158.7h28.1V280h-28.1v-12.7c-11.5,10.8-24,16.2-37.2,16.2c-16.8,0-30.6-6.1-41.6-18.2
		c-10.9-12.4-16.3-27.8-16.3-46.3c0-18.2,5.4-33.3,16.3-45.5c10.9-12.1,24.5-18.2,40.8-18.2c14.1,0,26.8,5.8,38,17.4V158.7z
		 M1286.3,219c0,11.6,3.1,21.1,9.3,28.4c6.4,7.4,14.4,11.1,24.2,11.1c10.4,0,18.8-3.6,25.2-10.7c6.4-7.4,9.6-16.8,9.6-28.1
		c0-11.4-3.2-20.8-9.6-28.1c-6.4-7.2-14.7-10.8-24.9-10.8c-9.6,0-17.7,3.7-24.2,11C1289.5,199,1286.3,208.1,1286.3,219z"/>
	<path class="st2" d="M1444.3,69.7V280h-28V69.7H1444.3z"/>
	<path class="st2" d="M1474.1,218.5c0-17.5,6.3-32.4,18.8-44.7c12.5-12.3,27.8-18.4,45.8-18.4c18.1,0,33.5,6.2,46.1,18.6
		c12.5,12.4,18.7,27.6,18.7,45.6c0,18.2-6.3,33.4-18.8,45.7c-12.6,12.2-28.1,18.3-46.4,18.3c-18.2,0-33.4-6.2-45.7-18.7
		C1480.2,252.5,1474.1,237.1,1474.1,218.5z M1502.7,219c0,12.1,3.2,21.7,9.7,28.8c6.6,7.1,15.4,10.7,26.3,10.7
		c11,0,19.7-3.5,26.3-10.6c6.6-7.1,9.8-16.5,9.8-28.3c0-11.8-3.3-21.2-9.8-28.3c-6.6-7.1-15.4-10.7-26.3-10.7
		c-10.7,0-19.4,3.6-26,10.7C1506,198.5,1502.7,207.7,1502.7,219z"/>
	<path class="st2" d="M1750.4,277.1c0,5.7-0.2,10.8-0.6,15.1c-0.4,4.4-0.9,8.2-1.6,11.5c-2,9.1-5.9,17-11.7,23.5
		c-11,12.6-26,18.9-45.2,18.9c-16.2,0-29.5-4.4-40-13.1c-10.8-9-17-21.4-18.7-37.2h28.1c1.1,6,2.9,10.6,5.4,13.8
		c5.8,7.6,14.3,11.3,25.4,11.3c20.5,0,30.8-12.6,30.8-37.7v-16.9c-11.1,11.4-24,17.1-38.5,17.1c-16.5,0-30.1-6-40.6-17.9
		c-10.6-12.1-15.9-27.3-15.9-45.5c0-17.7,4.9-32.7,14.8-45.1c10.6-13.1,24.7-19.7,42.1-19.7c15.3,0,28,5.7,38.1,17.1v-13.7h28V277.1
		z M1723.5,219.6c0-11.8-3.2-21.2-9.5-28.3c-6.4-7.2-14.6-10.8-24.5-10.8c-10.6,0-19,3.9-25.2,11.8c-5.6,7.1-8.3,16.2-8.3,27.4
		c0,11,2.8,20.1,8.3,27.1c6.1,7.7,14.4,11.6,25.2,11.6c10.7,0,19.2-3.9,25.4-11.7C1720.6,239.7,1723.5,230.6,1723.5,219.6z"/>
</g>
</svg>
